<svg width="247" height="201" viewBox="0 0 247 201" fill="none" xmlns="http://www.w3.org/2000/svg">
<path d="M75.5325 64.2393C74.8148 91.2027 110.788 118.727 155.691 118.727C200.595 118.727 272.103 65.5703 238.141 64.2393C172.701 61.6746 150.275 34.596 156.837 15.4005C168.588 -18.9771 76.9458 11.1483 75.5325 64.2393Z" fill="#3F3D56"/>
<path d="M135.261 42.8838L134.714 42.5356L135.062 41.9886L134.913 41.8939L134.565 42.4409L134.017 42.0927L133.922 42.2418L134.47 42.5899L134.121 43.1369L134.271 43.2319L134.619 42.6849L135.166 43.0328L135.261 42.8838Z" fill="#6833FF"/>
<path d="M175.973 82.49L175.426 82.1419L175.774 81.5949L175.625 81.5001L175.277 82.0471L174.729 81.699L174.634 81.848L175.182 82.1962L174.833 82.7432L174.983 82.8382L175.331 82.2912L175.878 82.6391L175.973 82.49Z" fill="#6833FF"/>
<path d="M110.084 77.6731L109.537 77.3249L109.885 76.7779L109.736 76.6832L109.388 77.2302L108.84 76.882L108.745 77.0311L109.292 77.3792L108.944 77.9262L109.093 78.0212L109.442 77.4742L109.989 77.8221L110.084 77.6731Z" fill="#6833FF"/>
<path d="M159.367 103.364L158.82 103.015L159.168 102.468L159.019 102.374L158.67 102.921L158.123 102.572L158.028 102.722L158.575 103.07L158.227 103.617L158.376 103.712L158.724 103.165L159.272 103.513L159.367 103.364Z" fill="#6833FF"/>
<path d="M113.566 93.4621L113.019 93.1139L113.367 92.5669L113.218 92.4722L112.869 93.0192L112.322 92.671L112.227 92.8201L112.774 93.1682L112.426 93.7152L112.575 93.8102L112.924 93.2632L113.471 93.6111L113.566 93.4621Z" fill="#6833FF"/>
<path d="M223.917 80.3491L223.37 80.001L223.718 79.454L223.569 79.3593L223.22 79.9062L222.673 79.5581L222.578 79.7071L223.125 80.0553L222.777 80.6023L222.926 80.6973L223.275 80.1503L223.822 80.4982L223.917 80.3491Z" fill="#6833FF"/>
<path d="M102.317 47.9683L101.769 47.6202L102.118 47.0732L101.968 46.9785L101.62 47.5254L101.073 47.1773L100.978 47.3263L101.525 47.6745L101.177 48.2215L101.326 48.3165L101.674 47.7695L102.222 48.1174L102.317 47.9683Z" fill="#6833FF"/>
<path d="M148.118 53.984L147.351 53.4969L147.839 52.731L147.63 52.5983L147.142 53.3639L146.376 52.8766L146.243 53.0856L147.009 53.5726L146.522 54.3385L146.731 54.4716L147.218 53.7056L147.985 54.193L148.118 53.984Z" fill="white"/>
<path d="M120.53 64.1054C120.974 64.1054 121.333 63.746 121.333 63.3026C121.333 62.8592 120.974 62.4998 120.53 62.4998C120.086 62.4998 119.726 62.8592 119.726 63.3026C119.726 63.746 120.086 64.1054 120.53 64.1054Z" fill="#6833FF"/>
<path d="M89.1924 64.1054C89.6362 64.1054 89.996 63.746 89.996 63.3026C89.996 62.8592 89.6362 62.4998 89.1924 62.4998C88.7487 62.4998 88.3889 62.8592 88.3889 63.3026C88.3889 63.746 88.7487 64.1054 89.1924 64.1054Z" fill="#6833FF"/>
<path d="M143.832 34.6683C144.276 34.6683 144.636 34.3089 144.636 33.8655C144.636 33.4221 144.276 33.0627 143.832 33.0627C143.389 33.0627 143.029 33.4221 143.029 33.8655C143.029 34.3089 143.389 34.6683 143.832 34.6683Z" fill="#6833FF"/>
<path d="M136.333 83.6409C136.776 83.6409 137.136 83.2815 137.136 82.8381C137.136 82.3947 136.776 82.0353 136.333 82.0353C135.889 82.0353 135.529 82.3947 135.529 82.8381C135.529 83.2815 135.889 83.6409 136.333 83.6409Z" fill="#6833FF"/>
<path d="M135.797 66.5139C136.093 66.5139 136.333 66.2743 136.333 65.9787C136.333 65.6831 136.093 65.4435 135.797 65.4435C135.501 65.4435 135.261 65.6831 135.261 65.9787C135.261 66.2743 135.501 66.5139 135.797 66.5139Z" fill="#6833FF"/>
<path d="M190.705 90.0636C191.001 90.0636 191.24 89.824 191.24 89.5284C191.24 89.2328 191.001 88.9932 190.705 88.9932C190.409 88.9932 190.169 89.2328 190.169 89.5284C190.169 89.824 190.409 90.0636 190.705 90.0636Z" fill="#FF6584"/>
<path d="M108.745 60.8941C109.041 60.8941 109.281 60.6545 109.281 60.3589C109.281 60.0633 109.041 59.8237 108.745 59.8237C108.449 59.8237 108.209 60.0633 108.209 60.3589C108.209 60.6545 108.449 60.8941 108.745 60.8941Z" fill="#FF6584"/>
<path d="M142.225 17.5413C142.521 17.5413 142.761 17.3017 142.761 17.0061C142.761 16.7105 142.521 16.4709 142.225 16.4709C141.929 16.4709 141.69 16.7105 141.69 17.0061C141.69 17.3017 141.929 17.5413 142.225 17.5413Z" fill="#FF6584"/>
<path d="M120.262 42.429C120.558 42.429 120.798 42.1894 120.798 41.8938C120.798 41.5982 120.558 41.3586 120.262 41.3586C119.966 41.3586 119.726 41.5982 119.726 41.8938C119.726 42.1894 119.966 42.429 120.262 42.429Z" fill="#6833FF"/>
<path d="M126.958 24.4991C127.254 24.4991 127.494 24.2595 127.494 23.9639C127.494 23.6683 127.254 23.4287 126.958 23.4287C126.662 23.4287 126.422 23.6683 126.422 23.9639C126.422 24.2595 126.662 24.4991 126.958 24.4991Z" fill="white"/>
<path d="M207.043 72.9365C207.487 72.9365 207.847 72.5771 207.847 72.1337C207.847 71.6903 207.487 71.3309 207.043 71.3309C206.599 71.3309 206.24 71.6903 206.24 72.1337C206.24 72.5771 206.599 72.9365 207.043 72.9365Z" fill="#6833FF"/>
<path d="M153.742 75.8803C154.186 75.8803 154.546 75.5208 154.546 75.0774C154.546 74.634 154.186 74.2746 153.742 74.2746C153.299 74.2746 152.939 74.634 152.939 75.0774C152.939 75.5208 153.299 75.8803 153.742 75.8803Z" fill="#6833FF"/>
<path d="M140.082 96.7538C141.562 96.7538 142.761 95.5557 142.761 94.0777C142.761 92.5997 141.562 91.4016 140.082 91.4016C138.603 91.4016 137.404 92.5997 137.404 94.0777C137.404 95.5557 138.603 96.7538 140.082 96.7538Z" fill="#6833FF"/>
<path d="M172.491 65.7111C172.935 65.7111 173.295 65.3516 173.295 64.9082C173.295 64.4648 172.935 64.1054 172.491 64.1054C172.048 64.1054 171.688 64.4648 171.688 64.9082C171.688 65.3516 172.048 65.7111 172.491 65.7111Z" fill="white"/>
<path d="M24.6223 193.594C24.6223 193.594 23.1231 199.857 24.486 200.129C25.8488 200.402 32.5266 200.314 34.162 200.586C35.7974 200.859 39.2045 200.402 39.2045 199.176C39.2045 197.951 35.6611 197.134 35.6611 197.134C35.6611 197.134 30.6187 194.411 30.4824 194.274C30.3461 194.138 24.6223 193.594 24.6223 193.594Z" fill="#2F2E41"/>
<path d="M26.2274 148.87C26.2274 148.87 26.7163 154.405 26.7163 154.893C26.7163 155.382 23.7833 181.104 24.4351 186.314C25.0868 191.523 24.3747 193.187 24.3747 194.164C24.3747 195.141 29.6492 194.779 29.6492 194.779L35.3521 158.801L32.4192 148.056L26.2274 148.87Z" fill="#2F2E41"/>
<path d="M26.5303 194.965C26.5303 194.965 25.1674 199.866 26.5303 200.139C27.8931 200.411 34.5709 199.827 36.2063 200.099C37.8417 200.371 41.2487 200.411 41.2487 199.186C41.2487 197.96 37.7054 197.143 37.7054 197.143C37.7054 197.143 32.663 194.42 32.5267 194.284C32.3904 194.148 26.5303 194.965 26.5303 194.965Z" fill="#2F2E41"/>
<path d="M24.7609 142.358C24.7609 142.358 22.8056 147.079 25.0868 149.521C27.368 151.963 29.975 156.847 29.975 157.173C29.975 157.498 25.4127 189.895 26.0644 192.012C26.7162 194.128 26.5532 195.43 26.3903 195.756C26.2274 196.082 28.0197 197.872 29.975 197.872C31.9303 197.872 34.8632 196.407 35.1891 195.105C35.515 193.802 34.7003 182.569 34.8632 180.453C35.0262 178.337 41.5438 144.474 40.7291 143.66C39.9144 142.846 24.7609 142.358 24.7609 142.358Z" fill="#2F2E41"/>
<path d="M37.1445 104.914C40.2041 104.914 42.6845 102.436 42.6845 99.3789C42.6845 96.3219 40.2041 93.8437 37.1445 93.8437C34.0848 93.8437 31.6045 96.3219 31.6045 99.3789C31.6045 102.436 34.0848 104.914 37.1445 104.914Z" fill="#9F616A"/>
<path d="M33.7227 102.146C33.7227 102.146 34.8632 108.17 34.0485 108.821C33.2338 109.472 40.2403 110.449 40.2403 110.449C40.2403 110.449 41.055 102.472 41.2179 101.658C41.3809 100.844 33.7227 102.146 33.7227 102.146Z" fill="#9F616A"/>
<path d="M41.2179 109.961C41.2179 109.961 42.2689 104.225 34.2848 105.853C34.2848 105.853 26.9951 111.825 27.321 117.36C27.6468 122.895 24.7609 138.939 25.0868 140.079C25.4127 141.218 23.1315 142.683 24.1092 143.172C25.0868 143.66 42.6844 146.591 43.1732 143.172C43.662 139.753 43.0103 131.125 43.3361 129.497C43.662 127.869 43.3361 114.193 42.3585 112.566C41.3809 110.938 41.2179 109.961 41.2179 109.961Z" fill="#6833FF"/>
<path d="M37.7962 149.684C37.7962 149.684 35.3521 158.963 38.4479 158.963C41.5438 158.963 41.3809 149.358 41.3809 149.358L37.7962 149.684Z" fill="#9F616A"/>
<path d="M39.4015 100.303C39.3308 100.769 38.6093 100.963 37.5503 100.872L37.5487 100.872C37.1002 100.83 36.6555 100.754 36.2186 100.645C35.5577 100.482 35.1853 101.07 34.9451 101.883C34.5508 103.225 34.5211 105.184 34.1743 105.44C31.753 106.777 24.5987 97.8121 28.2648 95.491C29.5705 94.6643 33.9659 91.5777 37.0026 92.2014C40.0392 92.825 38.8099 96.5908 38.8099 96.5908C38.8099 96.5908 38.9213 97.0851 39.0476 97.72C39.2275 98.5199 39.3491 99.3318 39.4115 100.149C39.4115 100.201 39.4082 100.252 39.4015 100.303Z" fill="#2F2E41"/>
<path d="M39.7515 111.589C39.7515 111.589 34.2115 111.263 33.7227 119.403C33.2339 127.543 33.3968 135.195 33.3968 135.357C33.3968 135.52 35.678 150.986 37.7962 150.986C39.9144 150.986 41.5438 150.661 42.0327 149.847C42.5215 149.033 40.7291 137.311 40.7291 137.311C40.7291 137.311 39.9144 124.938 41.2179 121.031C42.5215 117.124 42.6844 112.077 39.7515 111.589Z" fill="#6833FF"/>
<path opacity="0.1" d="M33.4813 121.642L31.8743 139.036L37.2311 151.079L33.7492 138.769L33.4813 121.374" fill="black"/>
<path opacity="0.1" d="M41.2487 123.515L41.658 144.022L40.1774 132.881L41.2487 123.515Z" fill="black"/>
<path d="M69.0331 200.75H0V200.187H69.1354L69.0331 200.75Z" fill="#3F3D56"/>
</svg>
