<svg width="248" height="192" viewBox="0 0 248 192" fill="none" xmlns="http://www.w3.org/2000/svg">
<g clip-path="url(#clip0_5997_142)">
<path d="M141.143 93.8823C146.701 93.8823 151.207 89.3725 151.207 83.8094C151.207 78.2463 146.701 73.7366 141.143 73.7366C135.585 73.7366 131.079 78.2463 131.079 83.8094C131.079 89.3725 135.585 93.8823 141.143 93.8823Z" fill="#E6E6E6"/>
<path d="M165.807 96.7535L155.29 86.2272C156.096 84.9722 156.643 83.568 156.897 82.0978C157.151 80.6276 157.107 79.1213 156.769 77.6682C156.431 76.2151 155.805 74.8447 154.928 73.6383C154.051 72.4318 152.941 71.4138 151.663 70.6446C149.258 69.2065 146.401 68.7249 143.658 69.2952C140.915 69.8656 138.486 71.4462 136.852 73.724C135.349 75.834 134.627 78.4024 134.81 80.9875C134.994 83.5726 136.071 86.0131 137.858 87.8892C139.644 89.7654 142.027 90.96 144.598 91.2678C147.169 91.5756 149.767 90.9773 151.945 89.5757L162.462 100.102C162.905 100.546 163.507 100.795 164.134 100.795C164.761 100.794 165.363 100.545 165.806 100.101C166.25 99.6572 166.499 99.0552 166.499 98.4275C166.499 97.7997 166.25 97.1976 165.807 96.7535ZM151.552 85.8343C150.249 87.1386 148.535 87.9503 146.701 88.1311C144.867 88.3119 143.027 87.8507 141.494 86.8259C139.962 85.8011 138.832 84.2763 138.297 82.5112C137.762 80.746 137.855 78.8499 138.561 77.1457C139.266 75.4415 140.54 74.0349 142.165 73.1653C143.79 72.2958 145.666 72.0172 147.474 72.3771C149.281 72.7369 150.908 73.7129 152.077 75.1388C153.246 76.5647 153.885 78.3522 153.885 80.1967C153.887 81.2439 153.681 82.281 153.281 83.2485C152.88 84.216 152.293 85.0947 151.552 85.8343Z" fill="#3F3D56"/>
<path d="M242.041 112.28C268.936 142.051 190.972 184.954 127.975 184.954C64.9775 184.954 21.3934 151.712 13.9083 112.28C-4.24051 16.6729 168.54 -44.0946 127.975 39.6065C68.8453 161.611 220.86 88.8356 242.041 112.28Z" fill="#E6E6E6"/>
<path d="M229.974 119.326C256.869 149.097 178.904 192 115.907 192C52.9101 192 9.326 158.757 1.8409 119.326C-16.3079 23.7187 156.473 -37.0489 115.907 46.6523C56.7779 168.656 208.793 95.8814 229.974 119.326Z" fill="#3F3D56"/>
<path d="M62.8144 78.6748C43.9423 77.843 29.3096 73.7684 29.5019 69.3984C29.6171 66.7785 34.9581 64.6717 44.1553 63.6185C44.1882 63.6145 44.2216 63.6171 44.2535 63.6261C44.2855 63.635 44.3153 63.6502 44.3413 63.6708C44.3673 63.6914 44.3891 63.7169 44.4052 63.7459C44.4213 63.7749 44.4316 63.8068 44.4353 63.8397C44.4391 63.8727 44.4363 63.9061 44.4271 63.938C44.418 63.9699 44.4026 63.9996 44.3819 64.0256C44.3611 64.0515 44.3355 64.073 44.3064 64.089C44.2774 64.1049 44.2454 64.115 44.2125 64.1185C35.5487 65.1107 30.1044 67.1423 30.0042 69.4206C29.8303 73.3724 44.8657 77.38 62.8365 78.172C80.8074 78.964 96.1364 76.2945 96.3103 72.3427C96.4109 70.0549 91.1322 67.5452 82.534 65.7931C82.5015 65.7866 82.4707 65.7738 82.4432 65.7553C82.4158 65.7368 82.3922 65.7131 82.3739 65.6855C82.3556 65.658 82.343 65.627 82.3366 65.5945C82.3303 65.562 82.3304 65.5286 82.337 65.4962C82.3436 65.4637 82.3566 65.4329 82.3751 65.4055C82.3936 65.378 82.4174 65.3545 82.445 65.3363C82.4726 65.3181 82.5035 65.3055 82.536 65.2992C82.5685 65.293 82.6019 65.2932 82.6343 65.2999C91.7605 67.1597 96.9283 69.7347 96.8126 72.3649C96.6204 76.7349 81.6866 79.5065 62.8144 78.6748Z" fill="#6833FF"/>
<path d="M46.0531 79.4066C47.6319 82.4085 49.9706 84.9428 52.8352 86.7559C55.6998 88.569 58.9899 89.5973 62.3763 89.738C65.7626 89.8787 69.1266 89.1268 72.1314 87.5575C75.1363 85.9883 77.6768 83.6567 79.4987 80.7961C68.3331 80.9467 57.1678 80.4828 46.0531 79.4066Z" fill="#6833FF"/>
<path d="M81.5863 75.5029C82.5365 72.6504 82.8102 69.6156 82.386 66.6388C81.9617 63.6621 80.8511 60.825 79.1419 58.3521C77.4328 55.8792 75.1721 53.8385 72.5387 52.3914C69.9054 50.9442 66.9716 50.1305 63.9697 50.0144C60.9678 49.8984 57.9801 50.4833 55.243 51.7229C52.506 52.9624 50.0948 54.8226 48.2002 57.1561C46.3057 59.4897 44.9797 62.2326 44.3274 65.1678C43.675 68.1029 43.7142 71.1498 44.4417 74.0672C56.7091 76.1516 69.1948 76.6342 81.5863 75.5029Z" fill="#6833FF"/>
<path d="M67.6513 62.5137C68.9009 62.5137 69.9139 61.4997 69.9139 60.249C69.9139 58.9982 68.9009 57.9843 67.6513 57.9843C66.4017 57.9843 65.3887 58.9982 65.3887 60.249C65.3887 61.4997 66.4017 62.5137 67.6513 62.5137Z" fill="white"/>
<path d="M56.0063 71.3184C58.089 71.3184 59.7773 69.6285 59.7773 67.5439C59.7773 65.4593 58.089 63.7694 56.0063 63.7694C53.9236 63.7694 52.2352 65.4593 52.2352 67.5439C52.2352 69.6285 53.9236 71.3184 56.0063 71.3184Z" fill="white"/>
<path d="M88.2156 38.4742C89.604 38.4742 90.7296 37.3476 90.7296 35.9579C90.7296 34.5682 89.604 33.4417 88.2156 33.4417C86.8272 33.4417 85.7017 34.5682 85.7017 35.9579C85.7017 37.3476 86.8272 38.4742 88.2156 38.4742Z" fill="#6833FF"/>
<path d="M31.3986 115.474C32.2317 115.474 32.907 114.798 32.907 113.964C32.907 113.131 32.2317 112.455 31.3986 112.455C30.5655 112.455 29.8901 113.131 29.8901 113.964C29.8901 114.798 30.5655 115.474 31.3986 115.474Z" fill="#E6E6E6"/>
<path d="M136.988 167.311C137.821 167.311 138.496 166.635 138.496 165.801C138.496 164.967 137.821 164.291 136.988 164.291C136.155 164.291 135.479 164.967 135.479 165.801C135.479 166.635 136.155 167.311 136.988 167.311Z" fill="#E6E6E6"/>
<path d="M79.0084 124.02C79.8415 124.02 80.5169 123.344 80.5169 122.51C80.5169 121.676 79.8415 121 79.0084 121C78.1753 121 77.5 121.676 77.5 122.51C77.5 123.344 78.1753 124.02 79.0084 124.02Z" fill="#E6E6E6"/>
<path d="M38.6893 86.2847C39.1058 86.2847 39.4435 85.9467 39.4435 85.5298C39.4435 85.1129 39.1058 84.7749 38.6893 84.7749C38.2727 84.7749 37.9351 85.1129 37.9351 85.5298C37.9351 85.9467 38.2727 86.2847 38.6893 86.2847Z" fill="#E6E6E6"/>
<path d="M101.037 142.651C101.454 142.651 101.791 142.313 101.791 141.896C101.791 141.479 101.454 141.141 101.037 141.141C100.621 141.141 100.283 141.479 100.283 141.896C100.283 142.313 100.621 142.651 101.037 142.651Z" fill="#E6E6E6"/>
<path d="M214.42 135.353C214.836 135.353 215.174 135.015 215.174 134.598C215.174 134.181 214.836 133.844 214.42 133.844C214.003 133.844 213.666 134.181 213.666 134.598C213.666 135.015 214.003 135.353 214.42 135.353Z" fill="#E6E6E6"/>
<path d="M178.972 157.749C179.389 157.749 179.726 157.411 179.726 156.994C179.726 156.577 179.389 156.239 178.972 156.239C178.555 156.239 178.218 156.577 178.218 156.994C178.218 157.411 178.555 157.749 178.972 157.749Z" fill="#E6E6E6"/>
<path d="M142.016 130.572C142.432 130.572 142.77 130.234 142.77 129.817C142.77 129.4 142.432 129.062 142.016 129.062C141.599 129.062 141.262 129.4 141.262 129.817C141.262 130.234 141.599 130.572 142.016 130.572Z" fill="#E6E6E6"/>
<path d="M94.2493 56.0887C94.6659 56.0887 95.0036 55.7507 95.0036 55.3338C95.0036 54.9168 94.6659 54.5789 94.2493 54.5789C93.8328 54.5789 93.4951 54.9168 93.4951 55.3338C93.4951 55.7507 93.8328 56.0887 94.2493 56.0887Z" fill="#E6E6E6"/>
<path d="M100.283 18.8469C100.699 18.8469 101.037 18.5089 101.037 18.092C101.037 17.675 100.699 17.337 100.283 17.337C99.8664 17.337 99.5287 17.675 99.5287 18.092C99.5287 18.5089 99.8664 18.8469 100.283 18.8469Z" fill="#E6E6E6"/>
<path d="M96.7633 175.615C97.1798 175.615 97.5175 175.277 97.5175 174.86C97.5175 174.443 97.1798 174.105 96.7633 174.105C96.3467 174.105 96.009 174.443 96.009 174.86C96.009 175.277 96.3467 175.615 96.7633 175.615Z" fill="#E6E6E6"/>
<path d="M59.5557 159.762C59.9723 159.762 60.31 159.424 60.31 159.007C60.31 158.59 59.9723 158.252 59.5557 158.252C59.1392 158.252 58.8015 158.59 58.8015 159.007C58.8015 159.424 59.1392 159.762 59.5557 159.762Z" fill="#E6E6E6"/>
<path d="M177.464 132.585C177.88 132.585 178.218 132.247 178.218 131.83C178.218 131.413 177.88 131.075 177.464 131.075C177.047 131.075 176.709 131.413 176.709 131.83C176.709 132.247 177.047 132.585 177.464 132.585Z" fill="#E6E6E6"/>
<path d="M62.5076 87.9785C63.7572 87.9785 64.7702 86.9646 64.7702 85.7138C64.7702 84.463 63.7572 83.4491 62.5076 83.4491C61.258 83.4491 60.245 84.463 60.245 85.7138C60.245 86.9646 61.258 87.9785 62.5076 87.9785Z" fill="white"/>
<path d="M205.859 79.9993C205.795 80.123 205.742 80.2516 205.698 80.3839L193.685 83.7248L191.52 81.6044L187.896 84.4562L191.364 88.5827C191.644 88.9161 192.025 89.1495 192.449 89.2479C192.873 89.3463 193.317 89.3044 193.715 89.1285L206.692 83.3951C207.132 83.7009 207.655 83.8654 208.191 83.8666C208.727 83.8678 209.25 83.7056 209.692 83.4017C210.134 83.0978 210.472 82.6665 210.663 82.1652C210.854 81.6639 210.887 81.1164 210.76 80.5955C210.632 80.0746 210.349 79.6049 209.948 79.249C209.547 78.8931 209.047 78.6678 208.515 78.603C207.983 78.5383 207.444 78.6372 206.97 78.8867C206.495 79.1361 206.108 79.5241 205.859 79.9993H205.859Z" fill="#FFB8B8"/>
<path d="M193.262 83.9205L188.753 87.4332C188.625 87.5332 188.476 87.6043 188.318 87.6417C188.16 87.6791 187.996 87.6819 187.836 87.65C187.677 87.618 187.526 87.5521 187.394 87.4566C187.263 87.3612 187.153 87.2384 187.073 87.0968L184.271 82.1327C183.764 81.4728 183.538 80.6385 183.645 79.8127C183.751 78.9869 184.18 78.237 184.838 77.7275C185.496 77.2181 186.329 76.9905 187.155 77.0949C187.98 77.1992 188.73 77.6269 189.241 78.2841L193.348 82.2081C193.466 82.3204 193.558 82.4569 193.618 82.608C193.678 82.7592 193.705 82.9216 193.697 83.0841C193.689 83.2466 193.646 83.4055 193.571 83.5498C193.496 83.6941 193.39 83.8206 193.262 83.9205V83.9205Z" fill="#6833FF"/>
<path d="M207.011 78.3377L211.584 80.3968C211.775 80.483 211.924 80.6419 211.999 80.8384C212.073 81.0348 212.067 81.2529 211.981 81.4446L211.439 82.649C211.503 82.6779 211.553 82.7308 211.577 82.7963C211.602 82.8617 211.6 82.9343 211.572 82.9982L211.355 83.48C211.326 83.5437 211.273 83.5934 211.208 83.6183C211.143 83.6431 211.07 83.641 211.006 83.6125L210.79 84.0942C210.853 84.1232 210.903 84.1761 210.928 84.2416C210.953 84.307 210.951 84.3796 210.922 84.4435L210.706 84.9253C210.677 84.989 210.624 85.0387 210.558 85.0636C210.493 85.0884 210.42 85.0863 210.357 85.0578L207.433 91.5616C207.347 91.7532 207.188 91.9027 206.992 91.9773C206.796 92.0518 206.578 92.0453 206.386 91.9591L201.814 89.9C201.622 89.8137 201.473 89.6549 201.399 89.4584C201.324 89.2619 201.331 89.0439 201.417 88.8522L205.964 78.7352C206.05 78.5436 206.209 78.394 206.405 78.3195C206.602 78.2449 206.82 78.2515 207.011 78.3377Z" fill="#3F3D56"/>
<path d="M202.644 89.2592L206.312 90.9127C206.496 90.9949 206.705 91.0011 206.893 90.9299C207.082 90.8586 207.234 90.7157 207.318 90.5323L209.012 86.7605L209.6 85.453L211.134 82.0403C211.216 81.8567 211.222 81.6481 211.15 81.46C211.079 81.272 210.937 81.1198 210.754 81.0366L209.6 80.5162L207.083 79.3831C206.899 79.301 206.69 79.2952 206.502 79.367C206.314 79.4388 206.162 79.5823 206.08 79.7661L204.597 83.0652L202.908 86.8212L202.264 88.2555C202.182 88.4391 202.176 88.6478 202.247 88.8359C202.318 89.024 202.461 89.1762 202.644 89.2592Z" fill="#F2F2F2"/>
<path d="M194.979 135.994L198.062 135.993L199.528 124.094L194.979 124.094L194.979 135.994Z" fill="#FFB8B8"/>
<path d="M194.193 134.986L200.263 134.986H200.263C200.771 134.986 201.274 135.086 201.744 135.281C202.213 135.475 202.639 135.761 202.999 136.12C203.358 136.48 203.643 136.906 203.837 137.376C204.032 137.846 204.132 138.349 204.132 138.858V138.984L194.194 138.984L194.193 134.986Z" fill="#2F2E41"/>
<path d="M203.024 135.239L206.106 135.239L207.573 123.339L203.024 123.339L203.024 135.239Z" fill="#FFB8B8"/>
<path d="M202.238 134.231L208.308 134.231H208.308C208.816 134.231 209.319 134.331 209.789 134.526C210.258 134.72 210.684 135.006 211.043 135.365C211.403 135.725 211.688 136.152 211.882 136.621C212.076 137.091 212.176 137.594 212.176 138.103V138.229L202.238 138.229L202.238 134.231Z" fill="#2F2E41"/>
<path d="M181.154 108.071C181.811 110.02 183.057 111.715 184.719 112.924C186.381 114.133 188.377 114.794 190.431 114.817L190.587 114.82C192.178 114.865 194.046 114.352 195.879 113.615C199.499 112.158 202.976 109.825 203.899 109.183L202.335 124.229L201.701 130.328C201.685 130.486 201.703 130.645 201.752 130.796C201.801 130.947 201.881 131.086 201.988 131.203C202.094 131.321 202.223 131.415 202.368 131.48C202.513 131.545 202.669 131.578 202.828 131.579H206.732C206.982 131.579 207.226 131.496 207.424 131.343C207.622 131.19 207.764 130.976 207.828 130.733L214.274 106.161C214.467 105.426 214.483 104.655 214.319 103.912C214.156 103.169 213.818 102.476 213.334 101.89C212.85 101.304 212.233 100.842 211.535 100.542C210.836 100.242 210.077 100.113 209.319 100.165L195.929 101.083L196.864 97.339L184.913 96.5438L184.878 96.569C184.591 96.7778 184.312 96.9968 184.045 97.2257C183.379 97.7898 182.788 98.4376 182.288 99.1533C181.393 100.437 180.822 101.919 180.625 103.473C180.427 105.026 180.609 106.604 181.154 108.071Z" fill="#2F2E41"/>
<path d="M181.154 108.071C181.811 110.019 183.057 111.715 184.719 112.924C186.381 114.133 188.377 114.794 190.431 114.817C192.395 113.822 194.291 112.697 196.105 111.448L195.879 113.615L193.908 132.593C193.892 132.751 193.909 132.91 193.958 133.061C194.008 133.211 194.088 133.35 194.194 133.468C194.3 133.586 194.43 133.68 194.574 133.745C194.719 133.809 194.876 133.843 195.034 133.843H198.938C199.189 133.844 199.432 133.761 199.631 133.608C199.829 133.455 199.971 133.24 200.035 132.998L202.335 124.228L206.481 108.426C206.674 107.69 206.689 106.919 206.526 106.177C206.362 105.434 206.025 104.741 205.54 104.155C205.056 103.569 204.439 103.107 203.741 102.807C203.043 102.507 202.283 102.377 201.525 102.429L188.136 103.348L189.071 99.6036L182.288 99.1532C181.393 100.437 180.822 101.919 180.625 103.472C180.427 105.026 180.609 106.604 181.154 108.071Z" fill="#2F2E41"/>
<path d="M184.028 98.0938L183.938 98.083L181.853 87.8201C181.835 87.731 180.13 78.8788 185.357 74.2509L185.448 73.6176C185.471 73.4555 185.529 73.3004 185.618 73.1629C185.707 73.0255 185.825 72.909 185.963 72.8215C186.101 72.734 186.257 72.6776 186.419 72.6561C186.581 72.6347 186.746 72.6487 186.902 72.6972L191.826 74.2258C192.105 74.3117 192.34 74.5022 192.481 74.7575C192.623 75.0128 192.66 75.3129 192.585 75.5951L192.107 77.4174C192.77 78.1975 200.582 87.6116 197.861 94.8645L196.642 99.6334L184.028 98.0938Z" fill="#6833FF"/>
<path d="M204.472 90.0841C204.355 90.1582 204.243 90.2416 204.138 90.3333L192.097 87.0978L191.31 84.1703L186.74 84.782L187.631 90.1001C187.703 90.5297 187.912 90.9244 188.227 91.2249C188.542 91.5254 188.946 91.7154 189.378 91.7665L203.465 93.4321C203.689 93.9195 204.055 94.3272 204.516 94.6009C204.977 94.8746 205.51 95.0013 206.045 94.9643C206.58 94.9273 207.09 94.7282 207.509 94.3936C207.928 94.059 208.235 93.6046 208.39 93.091C208.544 92.5774 208.539 92.0289 208.374 91.5184C208.21 91.0079 207.894 90.5596 207.469 90.2332C207.044 89.9068 206.529 89.7177 205.994 89.691C205.459 89.6644 204.928 89.8015 204.472 90.0841H204.472Z" fill="#FFB8B8"/>
<path d="M191.633 87.051L185.966 87.7816C185.805 87.8024 185.641 87.7881 185.486 87.7398C185.33 87.6915 185.187 87.6103 185.066 87.5017C184.945 87.3931 184.849 87.2597 184.784 87.1104C184.719 86.9612 184.687 86.7998 184.69 86.6371L184.798 80.9364C184.697 80.1101 184.927 79.2772 185.438 78.6202C185.949 77.9633 186.699 77.536 187.524 77.4321C188.35 77.3281 189.183 77.556 189.84 78.0657C190.498 78.5755 190.927 79.3254 191.033 80.1512L192.577 85.6203C192.621 85.7769 192.631 85.9412 192.606 86.102C192.581 86.2628 192.522 86.4163 192.432 86.552C192.343 86.6878 192.225 86.8027 192.087 86.8888C191.949 86.9748 191.794 87.0302 191.633 87.051Z" fill="#6833FF"/>
<path d="M190.038 71.3041C193.448 71.3041 196.212 68.5371 196.212 65.1237C196.212 61.7104 193.448 58.9434 190.038 58.9434C186.628 58.9434 183.863 61.7104 183.863 65.1237C183.863 68.5371 186.628 71.3041 190.038 71.3041Z" fill="#FFB8B8"/>
<path d="M189.713 65.6399L188.94 64.2309C187.476 70.2027 190.062 75.145 190.062 75.145L180.023 70.4644L180.119 68.8036L179.125 69.932L177.698 69.1447L177.509 68.0675L176.432 68.3346L180.365 61.1914C184.182 54.394 189.731 56.9892 189.731 56.9892C198.559 56.5691 197.481 65.2869 197.481 65.2869L189.713 65.6399Z" fill="#2F2E41"/>
<path d="M119.424 111.697C120.847 110.783 119.116 105.538 115.557 99.9803C111.997 94.4229 107.958 90.6583 106.534 91.5718C105.11 92.4853 106.842 97.731 110.401 103.288C113.96 108.846 118 112.61 119.424 111.697Z" fill="#3F3D56"/>
</g>
<defs>
<clipPath id="clip0_5997_142">
<rect width="247" height="192" fill="white" transform="translate(0.5)"/>
</clipPath>
</defs>
</svg>
